<svg xmlns="http://www.w3.org/2000/svg" xmlns:xlink="http://www.w3.org/1999/xlink" width="100" height="100" viewBox="0 0 100 100"><g><rect width="100%" height="100%" fill="#34495e"></rect><g transform="translate(50 50) scale(0.69 0.69) rotate(0) translate(-50 -50)" style="fill:#a2aa56;"><svg fill="#a2aa56" xmlns="http://www.w3.org/2000/svg" xmlns:xlink="http://www.w3.org/1999/xlink" version="1.1" x="0px" y="0px" viewBox="0 0 100 100" enable-background="new 0 0 100 100" xml:space="preserve"><path d="M46.474,24.987l5.497-5.495h-4.527v-3.625h15.032l5.486-5.495l-5.486-5.496H37.072l5.492,5.496l-5.497,5.495h5.95v3.625  H26.563l-5.486,5.495l5.486,5.496h16.455v66.1h4.426v-66.1h4.522L46.474,24.987z M45.393,10.372l-3.494-3.496h19.747l3.49,3.496  l-3.49,3.495H41.897L45.393,10.372z M45.018,15.867h0.426v3.625h-0.426V15.867z M23.902,24.987l3.49-3.495h19.748l-3.495,3.495  l3.494,3.496H27.393L23.902,24.987z M45.443,94.583h-0.426v-64.1h0.426V94.583z M55.369,24.987l5.487-5.495H53.66l-5.495,5.495  l5.493,5.496h7.197L55.369,24.987z M50.993,24.987l3.495-3.495h1.544l-3.489,3.495l3.49,3.496h-1.547L50.993,24.987z M35.378,15.867  l5.495-5.495L35.38,4.876h-7.197l5.486,5.496l-5.487,5.495H35.378z M33.005,6.876h1.547l3.493,3.496l-3.495,3.495h-1.544  l3.489-3.495L33.005,6.876z M60.111,47.218c0,3.561,2.896,6.457,6.457,6.457s6.457-2.896,6.457-6.457s-2.896-6.457-6.457-6.457  S60.111,43.657,60.111,47.218z M71.025,47.218c0,2.458-1.999,4.457-4.457,4.457s-4.457-1.999-4.457-4.457s1.999-4.457,4.457-4.457  S71.025,44.76,71.025,47.218z M76.16,74.933c0.5-0.56,0.739-1.309,0.655-2.054l-1.774-15.772c-0.173-1.534-1.467-2.691-3.011-2.691  h-10.81c-1.544,0-2.838,1.157-3.011,2.691l-1.774,15.771c-0.084,0.746,0.155,1.495,0.655,2.055c0.501,0.56,1.218,0.881,1.969,0.881  h1.385l0.997,17.751c0.089,1.605,1.417,2.863,3.024,2.863h4.229c1.608,0,2.937-1.258,3.023-2.863l0.998-17.751h1.476  C74.942,75.813,75.659,75.492,76.16,74.933z M70.825,73.813l-1.104,19.641c-0.03,0.546-0.481,0.974-1.027,0.974h-4.229  c-0.546,0-0.998-0.428-1.028-0.975l-1.103-19.64H59.06c-0.249,0-0.406-0.134-0.478-0.214c-0.071-0.079-0.187-0.25-0.158-0.498  l1.774-15.772c0.059-0.521,0.498-0.914,1.022-0.914h10.81c0.524,0,0.964,0.393,1.022,0.914l1.774,15.772v0.001  c0.028,0.247-0.087,0.418-0.158,0.497c-0.071,0.08-0.229,0.214-0.478,0.214H70.825z M76.448,77.011h-1.587  c-1.138,0-2.063,0.926-2.063,2.063v11.249c0,1.138,0.926,2.063,2.063,2.063h1.587c1.138,0,2.063-0.925,2.063-2.063V79.074  C78.511,77.937,77.586,77.011,76.448,77.011z M76.511,90.323c0,0.034-0.028,0.063-0.063,0.063l-1.65-0.063l0.063-11.313l1.649,0.063  V90.323z"></path></svg></g></g></svg>